<?xml version="1.0" encoding="UTF-8" standalone="no"?>
<svg
   width="16"
   height="16"
   fill="currentColor"
   class="bi bi-house"
   viewBox="0 0 16 16"
   version="1.1"
   id="svg13"
   sodipodi:docname="house-down.svg"
   inkscape:version="1.1 (c4e8f9e, 2021-05-24)"
   xmlns:inkscape="http://www.inkscape.org/namespaces/inkscape"
   xmlns:sodipodi="http://sodipodi.sourceforge.net/DTD/sodipodi-0.dtd"
   xmlns="http://www.w3.org/2000/svg"
   xmlns:svg="http://www.w3.org/2000/svg">
  <defs
     id="defs17" />
  <sodipodi:namedview
     id="namedview15"
     pagecolor="#ffffff"
     bordercolor="#666666"
     borderopacity="1.0"
     inkscape:pageshadow="2"
     inkscape:pageopacity="0.0"
     inkscape:pagecheckerboard="0"
     showgrid="false"
     inkscape:zoom="32.8125"
     inkscape:cx="7.9238095"
     inkscape:cy="8"
     inkscape:window-width="1280"
     inkscape:window-height="747"
     inkscape:window-x="0"
     inkscape:window-y="25"
     inkscape:window-maximized="0"
     inkscape:current-layer="svg13" />
  <path
     fill-rule="evenodd"
     d="M 1.9390476,14.505714 V 8.0057143 h 1 v 6.4999997 a 0.5,0.5 0 0 0 0.5,0.5 h 9.0000004 a 0.5,0.5 0 0 0 0.5,-0.5 V 8.0057143 h 1 v 6.4999997 a 1.5,1.5 0 0 1 -1.5,1.5 H 3.4390476 a 1.5,1.5 0 0 1 -1.5,-1.5 z M 12.939048,3.5057143 v 3.5 l -2,-2 v -1.5 a 0.5,0.5 0 0 1 0.5,-0.5 h 1 a 0.5,0.5 0 0 1 0.5,0.5 z"
     id="path9" />
  <path
     fill-rule="evenodd"
     d="m 7.2320476,2.2619048 a 1,1 0 0 1 1.414,0 l 6.6470004,6.646 a 0.5006316,0.5006316 0 0 1 -0.708,0.708 l -6.6460004,-6.647 -6.646,6.647 a 0.5006316,0.5006316 0 1 1 -0.70799998,-0.708 z"
     id="path11" />
</svg>
